<?xml version="1.0" encoding="UTF-8"?>
<svg id="Layer_1" xmlns="http://www.w3.org/2000/svg" version="1.1" viewBox="0 0 1000 1000">
  <!-- Generator: Adobe Illustrator 29.7.0, SVG Export Plug-In . SVG Version: 2.1.1 Build 138)  -->
  <defs>
    <style>
      .st0, .st1 {
        fill: #f2f2f3;
      }

      .st0, .st2 {
        fill-rule: evenodd;
      }

      .st2, .st3 {
        fill: #2c2d2e;
      }

      .st4 {
        fill: #f39e1e;
      }

      .st5 {
        fill: none;
        stroke: #f39e1e;
        stroke-miterlimit: 2.61;
        stroke-width: 20px;
      }

      .st6 {
        fill: #c1ad92;
      }
    </style>
  </defs>
  <rect class="st3" width="1000" height="1000"/>
  <g>
    <path class="st6" d="M500,655.65"/>
    <rect class="st1" x="428.03" y="238.75" width="143.95" height="58.93"/>
    <rect class="st1" x="507.2" y="312.41" width="143.95" height="58.93"/>
    <rect class="st1" x="348.86" y="312.41" width="143.95" height="58.93"/>
    <rect class="st1" x="428.03" y="386.07" width="143.95" height="58.93"/>
    <rect class="st1" x="269.68" y="386.07" width="143.95" height="58.93"/>
    <rect class="st1" x="586.37" y="386.07" width="143.95" height="58.93"/>
    <path class="st0" d="M499.99,802.01c-101.47,0-191.29-50-246.09-126.64-14.6,2.79-29.31,5.84-44.17,9.24,61.09,95.67,168.26,159.14,290.26,159.14s230.72-64.38,291.56-161.22c-10.5-2.5-25.33-5.78-43.99-9.25-54.67,77.84-145.17,128.73-247.57,128.73Z"/>
    <path class="st0" d="M843.75,486.37c-7.18-183.52-158.31-330.12-343.75-330.12S163.43,302.84,156.25,486.37h0v34.38h687.51v-34.38h0ZM499.99,198c162.37,0,294.8,127.91,301.94,288.37H198.07c7.13-160.46,139.58-288.37,301.93-288.37Z"/>
    <path class="st2" d="M87.51,520.74h824.98v167.06s-421.15,0-824.99,0v-167.06"/>
    <path class="st5" d="M87.51,520.74h824.99v167.05s-421.15.01-824.99,0v-167.05Z"/>
    <path class="st4" d="M272.61,571.9h-16.15l-15.93,18.64c-1.71,2.06-3.32,4.03-4.83,5.93-1.51,1.9-2.96,3.79-4.35,5.67-.23.31-.45.63-.68.94l.07-13.36v-17.81h-13.32v64.74h13.32v-18.13l8.6-9.74,18.4,27.87h15.54l-24.93-36.73,24.28-28Z"/>
    <path class="st4" d="M307.12,571.9l-22.51,64.74h14.54l4.77-14.51h23.69l4.75,14.51h14.8l-22.77-64.74h-17.28ZM307.4,611.57l2.07-6.3c1.25-4.06,2.51-8.38,3.79-12.97.79-2.82,1.61-5.86,2.47-9.07.88,3.21,1.72,6.24,2.51,9.05,1.29,4.58,2.58,8.91,3.85,12.99l2.06,6.3h-16.76Z"/>
    <path class="st4" d="M402.76,601.88c-.44,1.36-.94,3.09-1.52,5.17s-1.17,4.3-1.78,6.65c-.53,2.05-1.02,4-1.49,5.9-.48-1.91-.98-3.87-1.51-5.92-.61-2.33-1.21-4.54-1.81-6.63s-1.11-3.81-1.55-5.17l-10.62-29.98h-19.89v64.74h13.15v-30.67c0-1.45-.02-3.2-.07-5.26-.04-2.06-.09-4.26-.15-6.63-.06-2.36-.12-4.74-.17-7.12,0-.34-.01-.65-.02-.98.15.51.29,1.01.44,1.53.71,2.49,1.41,4.9,2.11,7.21.7,2.32,1.34,4.45,1.94,6.39.59,1.94,1.11,3.56,1.55,4.87l11.01,30.67h11.01l10.88-30.67c.44-1.3.96-2.93,1.57-4.89s1.25-4.1,1.92-6.43c.67-2.33,1.35-4.73,2.05-7.19.22-.77.42-1.52.63-2.28-.01.62-.02,1.22-.04,1.86-.07,2.39-.14,4.77-.2,7.13-.06,2.36-.11,4.56-.15,6.6-.04,2.04-.07,3.77-.07,5.19v30.67h13.19v-64.74h-19.94l-10.45,29.98Z"/>
    <polygon class="st4" points="466 609.44 495.43 609.44 495.43 598.45 466 598.45 466 583.15 497.83 583.15 497.83 571.9 452.68 571.9 452.68 636.64 497.87 636.64 497.87 625.39 466 625.39 466 609.44"/>
    <path class="st4" d="M557.81,603.53c0,1.51.03,3.47.09,5.89.06,2.42.15,4.95.28,7.58.02.5.05.98.07,1.46-.48-.99-.96-1.97-1.45-2.93-1.1-2.17-2.17-4.16-3.2-5.97-1.03-1.81-1.95-3.37-2.76-4.67l-20.68-32.98h-14.41v64.74h13.45v-29.89c0-1.33-.03-3.11-.09-5.32-.06-2.22-.15-4.74-.26-7.58-.05-1.19-.11-2.43-.17-3.68.76,1.44,1.49,2.8,2.18,4.1,1.36,2.56,2.64,4.87,3.83,6.93,1.19,2.06,2.31,3.92,3.35,5.6l18.76,29.85h14.45v-64.74h-13.45v31.63Z"/>
    <path class="st1" d="M628.85,574.6c-3.51-1.8-7.72-2.69-12.62-2.69h-25.42v64.74h13.32v-21.77h11.89c4.93,0,9.17-.89,12.71-2.67,3.54-1.78,6.26-4.28,8.16-7.49,1.9-3.22,2.85-6.98,2.85-11.3s-.94-8.08-2.81-11.3c-1.87-3.22-4.56-5.72-8.08-7.52ZM625.02,598.91c-.9,1.58-2.21,2.8-3.94,3.67-1.73.87-3.85,1.3-6.38,1.3h-10.58v-20.9h10.54c2.55,0,4.69.43,6.42,1.3,1.73.87,3.04,2.08,3.94,3.63.9,1.55,1.35,3.38,1.35,5.5s-.45,3.92-1.35,5.5Z"/>
    <path class="st1" d="M694.58,611.29c3.6-1.67,6.37-4.05,8.31-7.15,1.94-3.1,2.92-6.79,2.92-11.08s-.94-8.05-2.81-11.21c-1.87-3.16-4.56-5.6-8.08-7.34-3.51-1.74-7.72-2.61-12.62-2.61h-25.64v64.74h13.32v-22.85h11.24l11.87,22.85h14.54l-13.37-25.23c.1-.04.21-.07.31-.12ZM691.09,598.43c-.9,1.49-2.21,2.64-3.94,3.43-1.73.8-3.85,1.2-6.38,1.2h-10.8v-20.12h10.75c2.52,0,4.66.41,6.4,1.22,1.74.81,3.06,1.97,3.96,3.48.9,1.51,1.35,3.32,1.35,5.43s-.45,3.87-1.35,5.37Z"/>
    <path class="st1" d="M778.59,586.41c-2.67-4.98-6.3-8.8-10.88-11.47-4.59-2.67-9.77-4-15.54-4s-10.96,1.33-15.56,4c-4.6,2.67-8.23,6.49-10.88,11.47-2.66,4.98-3.98,10.95-3.98,17.9s1.33,12.87,3.98,17.84c2.66,4.97,6.28,8.78,10.88,11.45,4.6,2.67,9.79,4,15.56,4s10.96-1.33,15.54-3.98c4.59-2.65,8.21-6.47,10.88-11.45,2.67-4.98,4-10.93,4-17.86s-1.33-12.92-4-17.9ZM766.96,616c-1.42,3.22-3.41,5.66-5.96,7.32-2.55,1.67-5.5,2.5-8.84,2.5s-6.28-.83-8.84-2.5c-2.55-1.67-4.55-4.11-5.99-7.32-1.44-3.21-2.16-7.11-2.16-11.69s.72-8.52,2.16-11.75c1.44-3.23,3.43-5.68,5.99-7.34,2.55-1.67,5.5-2.5,8.84-2.5s6.28.83,8.84,2.5c2.55,1.67,4.54,4.11,5.96,7.32,1.42,3.21,2.13,7.14,2.13,11.77s-.71,8.47-2.13,11.69Z"/>
  </g>
</svg>